<svg width="22" height="32" viewBox="0 0 22 32" fill="none" xmlns="http://www.w3.org/2000/svg">
<path d="M14.1213 19.7071C14.5118 20.0976 14.5118 20.7308 14.1213 21.1213C13.7308 21.5118 13.0976 21.5118 12.7071 21.1213L8.61526 17.0295C8.22474 16.639 8.22474 16.0058 8.61526 15.6153C9.00579 15.2247 9.63895 15.2247 10.0295 15.6153L14.1213 19.7071Z" fill="#8E8E8E"/>
<path d="M10.0295 16.9071C9.63895 17.2976 9.00579 17.2976 8.61526 16.9071C8.22474 16.5166 8.22474 15.8834 8.61526 15.4929L12.7071 11.401C13.0976 11.0105 13.7308 11.0105 14.1213 11.401C14.5118 11.7916 14.5118 12.4247 14.1213 12.8153L10.0295 16.9071Z" fill="#8E8E8E"/>
</svg>
